HIERARCHY
ROOT newVegas:Hips
{
	OFFSET 0.000000 96.479958 0.000000
	CHANNELS 6 Xposition Yposition Zposition Xrotation Yrotation Zrotation
	JOINT newVegas:Pelvis
	{
		OFFSET 0.000000 0.000000 0.000000
		CHANNELS 3 Xrotation Yrotation Zrotation
		JOINT newVegas:LeftUpLeg
		{
			OFFSET 18.735201 -5.666702 -4.541200
			CHANNELS 3 Xrotation Yrotation Zrotation
			JOINT newVegas:LeftLeg
			{
				OFFSET -0.021200 -31.938179 0.493100
				CHANNELS 3 Xrotation Yrotation Zrotation
				JOINT newVegas:LeftFoot
				{
					OFFSET 0.021200 -31.938179 -4.336299
					CHANNELS 3 Xrotation Yrotation Zrotation
					JOINT newVegas:LeftToeBase
					{
						OFFSET 0.943001 -26.722000 15.023500
						CHANNELS 3 Xrotation Yrotation Zrotation
						End Site
						{
							OFFSET 0.000000 30.670183 0.000000
						}
					}
				}
				JOINT newVegas:Left_PantLeg
				{
					OFFSET 0.663870 -9.044666 -1.108900
					CHANNELS 3 Xrotation Yrotation Zrotation
					End Site
					{
						OFFSET 1.415995 20.635357 0.000000
					}
				}
			}
		}
		JOINT newVegas:RightUpLeg
		{
			OFFSET -18.735201 -5.666702 -4.541200
			CHANNELS 3 Xrotation Yrotation Zrotation
			JOINT newVegas:RightLeg
			{
				OFFSET 0.018946 -31.938133 0.493100
				CHANNELS 3 Xrotation Yrotation Zrotation
				JOINT newVegas:RightFoot
				{
					OFFSET -0.018946 -31.938126 -4.336299
					CHANNELS 3 Xrotation Yrotation Zrotation
					JOINT newVegas:RightToeBase
					{
						OFFSET -0.943001 -26.722004 15.023500
						CHANNELS 3 Xrotation Yrotation Zrotation
						End Site
						{
							OFFSET 0.000000 30.670187 0.000000
						}
					}
				}
				JOINT newVegas:Right_PantLeg
				{
					OFFSET -0.661674 -9.044716 -1.108900
					CHANNELS 3 Xrotation Yrotation Zrotation
					End Site
					{
						OFFSET -1.415958 20.635269 0.000000
					}
				}
			}
		}
	}
	JOINT newVegas:Spine
	{
		OFFSET 0.000000 10.199997 -0.299500
		CHANNELS 3 Xrotation Yrotation Zrotation
		JOINT newVegas:Spine1
		{
			OFFSET 0.000000 11.900002 -1.516600
			CHANNELS 3 Xrotation Yrotation Zrotation
			JOINT newVegas:Spine2
			{
				OFFSET 0.000000 13.600006 -2.842500
				CHANNELS 3 Xrotation Yrotation Zrotation
				JOINT newVegas:Neck
				{
					OFFSET 0.000000 9.624100 -2.890100
					CHANNELS 3 Xrotation Yrotation Zrotation
					JOINT newVegas:Head
					{
						OFFSET 0.000000 14.068802 -1.351900
						CHANNELS 3 Xrotation Yrotation Zrotation
						JOINT newVegas:Hair_Back
						{
							OFFSET 0.000000 3.231903 -17.524799
							CHANNELS 3 Xrotation Yrotation Zrotation
							End Site
							{
								OFFSET 0.000000 19.849884 0.000000
							}
						}
						JOINT newVegas:Hair_Front
						{
							OFFSET 0.000000 31.260406 4.573800
							CHANNELS 3 Xrotation Yrotation Zrotation
							JOINT newVegas:Hair_Front1
							{
								OFFSET 0.000000 2.284103 11.993300
								CHANNELS 3 Xrotation Yrotation Zrotation
								JOINT newVegas:Hair_Front2
								{
									OFFSET 0.000000 2.284103 11.993300
									CHANNELS 3 Xrotation Yrotation Zrotation
									End Site
									{
										OFFSET 0.000000 12.208862 0.000000
									}
								}
							}
						}
						JOINT newVegas:Jowel
						{
							OFFSET 0.000000 -7.458206 6.864100
							CHANNELS 3 Xrotation Yrotation Zrotation
							End Site
							{
								OFFSET 0.000000 19.849884 0.000000
							}
						}
					}
				}
				JOINT newVegas:LeftShoulder
				{
					OFFSET 15.263000 10.923401 -0.547700
					CHANNELS 3 Xrotation Yrotation Zrotation
					JOINT newVegas:LeftArm
					{
						OFFSET 25.438599 -2.830597 -13.032500
						CHANNELS 3 Xrotation Yrotation Zrotation
						JOINT newVegas:LeftForeArm
						{
							OFFSET 29.960503 0.000000 0.000000
							CHANNELS 3 Xrotation Yrotation Zrotation
							JOINT newVegas:LeftHand
							{
								OFFSET 27.849251 0.000000 0.000000
								CHANNELS 3 Xrotation Yrotation Zrotation
								JOINT newVegas:LeftHandThumb1
								{
									OFFSET 4.487587 -3.305161 6.305391
									CHANNELS 3 Xrotation Yrotation Zrotation
									JOINT newVegas:LeftHandThumb2
									{
										OFFSET 5.480453 -3.164139 3.164143
										CHANNELS 3 Xrotation Yrotation Zrotation
										JOINT newVegas:LeftHandThumb3
										{
											OFFSET 5.159721 -2.978973 2.978967
											CHANNELS 3 Xrotation Yrotation Zrotation
											End Site
											{
												OFFSET 2.494507 5.926697 1.738678
											}
										}
									}
								}
								JOINT newVegas:LeftHandIndex1
								{
									OFFSET 18.578728 -0.527832 5.208049
									CHANNELS 3 Xrotation Yrotation Zrotation
									JOINT newVegas:LeftHandIndex2
									{
										OFFSET 3.192009 0.000000 0.000000
										CHANNELS 3 Xrotation Yrotation Zrotation
										JOINT newVegas:LeftHandIndex3
										{
											OFFSET 3.835129 0.000000 0.000000
											CHANNELS 3 Xrotation Yrotation Zrotation
											End Site
											{
												OFFSET -0.034599 3.816971 0.371180
											}
										}
									}
								}
								JOINT newVegas:LeftHandMiddle1
								{
									OFFSET 18.476105 0.000000 0.000000
									CHANNELS 3 Xrotation Yrotation Zrotation
									JOINT newVegas:LeftHandMiddle2
									{
										OFFSET 3.324875 0.000000 0.000000
										CHANNELS 3 Xrotation Yrotation Zrotation
										JOINT newVegas:LeftHandMiddle3
										{
											OFFSET 4.596550 0.000000 0.000000
											CHANNELS 3 Xrotation Yrotation Zrotation
											End Site
											{
												OFFSET 0.057701 4.578827 0.399218
											}
										}
									}
								}
								JOINT newVegas:LeftHandRing1
								{
									OFFSET 17.732719 0.121887 -4.201567
									CHANNELS 3 Xrotation Yrotation Zrotation
									JOINT newVegas:LeftHandRing2
									{
										OFFSET 2.733170 0.000000 0.000000
										CHANNELS 3 Xrotation Yrotation Zrotation
										JOINT newVegas:LeftHandRing3
										{
											OFFSET 3.178268 0.000000 0.000000
											CHANNELS 3 Xrotation Yrotation Zrotation
											End Site
											{
												OFFSET 0.119102 3.170624 0.185394
											}
										}
									}
								}
								JOINT newVegas:LeftHandPinky1
								{
									OFFSET 15.989624 -0.606689 -7.535461
									CHANNELS 3 Xrotation Yrotation Zrotation
									JOINT newVegas:LeftHandPinky2
									{
										OFFSET 2.538986 0.000000 0.000000
										CHANNELS 3 Xrotation Yrotation Zrotation
										JOINT newVegas:LeftHandPinky3
										{
											OFFSET 2.593102 0.000000 0.000000
											CHANNELS 3 Xrotation Yrotation Zrotation
											End Site
											{
												OFFSET -0.150902 2.584198 0.152708
											}
										}
									}
								}
							}
							JOINT newVegas:Left_Sleeve
							{
								OFFSET 0.267448 -0.649796 0.577675
								CHANNELS 3 Xrotation Yrotation Zrotation
								End Site
								{
									OFFSET 0.000000 15.991241 0.000000
								}
							}
							JOINT newVegas:Left_CapeC
							{
								OFFSET 15.715958 -8.608795 -6.935905
								CHANNELS 3 Xrotation Yrotation Zrotation
								JOINT newVegas:Left_CapeC1
								{
									OFFSET 0.000000 -8.688499 0.000000
									CHANNELS 3 Xrotation Yrotation Zrotation
									End Site
									{
										OFFSET 0.000000 8.688499 0.000000
									}
								}
							}
						}
						JOINT newVegas:Left_CapeB
						{
							OFFSET 26.118385 -8.608795 -7.079235
							CHANNELS 3 Xrotation Yrotation Zrotation
							JOINT newVegas:Left_CapeB1
							{
								OFFSET 0.000000 -8.688499 0.000000
								CHANNELS 3 Xrotation Yrotation Zrotation
								End Site
								{
									OFFSET 0.000000 8.688499 0.000000
								}
							}
						}
						JOINT newVegas:Left_CapeA
						{
							OFFSET 5.115639 -8.608795 -10.395809
							CHANNELS 3 Xrotation Yrotation Zrotation
							JOINT newVegas:Left_CapeA1
							{
								OFFSET 0.000000 -8.688499 0.000000
								CHANNELS 3 Xrotation Yrotation Zrotation
								End Site
								{
									OFFSET 0.000000 8.688499 0.000000
								}
							}
						}
					}
				}
				JOINT newVegas:RightShoulder
				{
					OFFSET -15.263000 10.923401 -0.547700
					CHANNELS 3 Xrotation Yrotation Zrotation
					JOINT newVegas:RightArm
					{
						OFFSET -25.438599 -2.830597 -13.032500
						CHANNELS 3 Xrotation Yrotation Zrotation
						JOINT newVegas:RightForeArm
						{
							OFFSET -29.960503 0.000000 0.000000
							CHANNELS 3 Xrotation Yrotation Zrotation
							JOINT newVegas:RightHand
							{
								OFFSET -27.849251 0.000000 0.000000
								CHANNELS 3 Xrotation Yrotation Zrotation
								JOINT newVegas:RightHandThumb1
								{
									OFFSET -4.487587 -3.305161 6.305391
									CHANNELS 3 Xrotation Yrotation Zrotation
									JOINT newVegas:RightHandThumb2
									{
										OFFSET -5.480453 -3.164139 3.164143
										CHANNELS 3 Xrotation Yrotation Zrotation
										JOINT newVegas:RightHandThumb3
										{
											OFFSET -5.159721 -2.978973 2.978967
											CHANNELS 3 Xrotation Yrotation Zrotation
											End Site
											{
												OFFSET -2.494507 5.926697 1.738678
											}
										}
									}
								}
								JOINT newVegas:RightHandIndex1
								{
									OFFSET -18.578728 -0.527832 5.208049
									CHANNELS 3 Xrotation Yrotation Zrotation
									JOINT newVegas:RightHandIndex2
									{
										OFFSET -3.192009 0.000000 0.000000
										CHANNELS 3 Xrotation Yrotation Zrotation
										JOINT newVegas:RightHandIndex3
										{
											OFFSET -3.835129 0.000000 0.000000
											CHANNELS 3 Xrotation Yrotation Zrotation
											End Site
											{
												OFFSET 0.034599 3.816971 0.371180
											}
										}
									}
								}
								JOINT newVegas:RightHandMiddle1
								{
									OFFSET -18.476105 0.000000 0.000000
									CHANNELS 3 Xrotation Yrotation Zrotation
									JOINT newVegas:RightHandMiddle2
									{
										OFFSET -3.324875 0.000000 0.000000
										CHANNELS 3 Xrotation Yrotation Zrotation
										JOINT newVegas:RightHandMiddle3
										{
											OFFSET -4.596550 0.000000 0.000000
											CHANNELS 3 Xrotation Yrotation Zrotation
											End Site
											{
												OFFSET -0.057701 4.578827 0.399218
											}
										}
									}
								}
								JOINT newVegas:RightHandRing1
								{
									OFFSET -17.732719 0.121887 -4.201567
									CHANNELS 3 Xrotation Yrotation Zrotation
									JOINT newVegas:RightHandRing2
									{
										OFFSET -2.733170 0.000000 0.000000
										CHANNELS 3 Xrotation Yrotation Zrotation
										JOINT newVegas:RightHandRing3
										{
											OFFSET -3.178268 0.000000 0.000000
											CHANNELS 3 Xrotation Yrotation Zrotation
											End Site
											{
												OFFSET -0.119102 3.170624 0.185394
											}
										}
									}
								}
								JOINT newVegas:RightHandPinky1
								{
									OFFSET -15.989624 -0.606689 -7.535461
									CHANNELS 3 Xrotation Yrotation Zrotation
									JOINT newVegas:RightHandPinky2
									{
										OFFSET -2.538986 0.000000 0.000000
										CHANNELS 3 Xrotation Yrotation Zrotation
										JOINT newVegas:RightHandPinky3
										{
											OFFSET -2.593102 0.000000 0.000000
											CHANNELS 3 Xrotation Yrotation Zrotation
											End Site
											{
												OFFSET 0.150902 2.584198 0.152708
											}
										}
									}
								}
							}
							JOINT newVegas:Right_CapeC
							{
								OFFSET -15.715958 -8.608795 -6.935905
								CHANNELS 3 Xrotation Yrotation Zrotation
								JOINT newVegas:Right_CapeC1
								{
									OFFSET 0.000000 -8.688499 0.000000
									CHANNELS 3 Xrotation Yrotation Zrotation
									End Site
									{
										OFFSET 0.000000 8.688499 0.000000
									}
								}
							}
							JOINT newVegas:Right_Sleeve
							{
								OFFSET -0.267448 -0.649994 0.577675
								CHANNELS 3 Xrotation Yrotation Zrotation
								End Site
								{
									OFFSET 0.000000 15.991302 0.000000
								}
							}
						}
						JOINT newVegas:Right_CapeA
						{
							OFFSET -5.115540 -8.608795 -10.395824
							CHANNELS 3 Xrotation Yrotation Zrotation
							JOINT newVegas:Right_CapeA1
							{
								OFFSET 0.000000 -8.688499 0.000000
								CHANNELS 3 Xrotation Yrotation Zrotation
								End Site
								{
									OFFSET 0.000000 8.688499 0.000000
								}
							}
						}
						JOINT newVegas:Right_CapeB
						{
							OFFSET -26.118187 -8.608795 -7.079266
							CHANNELS 3 Xrotation Yrotation Zrotation
							JOINT newVegas:Right_CapeB1
							{
								OFFSET 0.000000 -8.688499 0.000000
								CHANNELS 3 Xrotation Yrotation Zrotation
								End Site
								{
									OFFSET 0.000000 8.688499 0.000000
								}
							}
						}
					}
				}
				JOINT newVegas:Left_Collar
				{
					OFFSET 18.625099 8.655502 8.828100
					CHANNELS 3 Xrotation Yrotation Zrotation
					JOINT newVegas:Left_Collar1
					{
						OFFSET 14.783401 10.540405 -1.259500
						CHANNELS 3 Xrotation Yrotation Zrotation
						End Site
						{
							OFFSET 0.000000 18.199875 0.000000
						}
					}
				}
				JOINT newVegas:Collar_Back
				{
					OFFSET 0.000000 15.630707 -20.132601
					CHANNELS 3 Xrotation Yrotation Zrotation
					End Site
					{
						OFFSET 0.000000 22.523010 0.000000
					}
				}
				JOINT newVegas:Left_Peck
				{
					OFFSET 17.239599 -5.132599 25.482599
					CHANNELS 3 Xrotation Yrotation Zrotation
					End Site
					{
						OFFSET 0.000000 22.523010 0.000000
					}
				}
				JOINT newVegas:Right_Peck
				{
					OFFSET -17.239599 -5.132202 25.482599
					CHANNELS 3 Xrotation Yrotation Zrotation
					End Site
					{
						OFFSET 0.000000 22.523010 0.000000
					}
				}
				JOINT newVegas:Right_Collar
				{
					OFFSET -18.625099 8.655792 8.828100
					CHANNELS 3 Xrotation Yrotation Zrotation
					JOINT newVegas:Right_Collar1
					{
						OFFSET -14.783401 10.539993 -1.259500
						CHANNELS 3 Xrotation Yrotation Zrotation
						End Site
						{
							OFFSET 0.000000 18.199631 0.000000
						}
					}
				}
			}
		}
		JOINT newVegas:Belly
		{
			OFFSET 0.000000 -6.540398 9.014299
			CHANNELS 3 Xrotation Yrotation Zrotation
			End Site
			{
				OFFSET 0.000000 11.566666 0.000000
			}
		}
	}
	JOINT newVegas:ElvisFacialAnim_Joint
	{
		OFFSET 1.000000 -95.330101 -8.825800
		CHANNELS 3 Xrotation Yrotation Zrotation
		End Site
		{
			OFFSET 0.000000 35.315800 0.000000
		}
	}
}
MOTION
Frames: 4
Frame Time: 0.033333
-1.035477 89.827240 2.756194 5.048370 -15.557774 0.313355 0.000000 0.000000 -0.000000 -39.841183 1.353309 11.205663 35.806403 4.186817 1.508237 0.118557 0.612139 -7.710201 -0.000000 0.000000 -0.000000 0.000000 -0.000000 0.000002 -13.249560 -10.206234 -14.508240 32.034622 -5.746337 1.668700 -20.404570 -3.421277 13.642496 0.000000 0.000004 0.000000 -0.000001 -0.000000 -0.000000 23.100192 4.232151 -0.406402 3.699081 1.240278 -0.840909 3.692186 1.313813 -0.845955 -2.535802 0.264606 0.436108 -2.535804 0.264610 0.436108 -0.000001 -0.000000 0.000000 -2.535697 0.264607 0.436106 -2.535796 0.264614 0.436106 0.000001 -0.000001 -0.000000 -0.000001 -0.000000 -0.000000 7.812697 -20.949845 9.748527 -32.800546 -13.476177 -85.324950 -0.000120 -43.166686 2.281250 -24.869555 -10.866705 -12.599056 -7.471946 1.860698 -7.166925 30.987014 27.310539 -4.510896 0.000003 -0.000006 -0.000003 -4.707393 11.366697 -75.214453 -0.816396 3.074000 -46.874629 0.000001 -0.000003 0.000001 1.623343 16.580936 -84.691286 0.018006 0.022037 -72.884860 0.000000 -0.000001 -0.000000 -6.443146 23.132630 -76.210199 0.012872 0.975921 -51.002979 0.000000 -0.000002 0.000002 -17.098988 22.128969 -43.123171 0.019729 0.027008 -78.662865 -0.000000 -0.000005 -0.000000 -0.000000 0.000003 0.000001 -0.000000 0.000003 0.000001 -0.000001 0.000003 0.000002 -0.000001 -0.000001 0.000000 -0.000001 -0.000001 0.000000 -0.000001 -0.000001 0.000000 -0.000002 -0.000001 -0.000000 13.916996 27.241163 -23.493066 -40.988122 17.667994 84.577659 -0.012719 57.213493 -13.879029 -30.568477 16.096676 8.636290 9.347177 2.810538 -11.364506 16.169032 -43.266035 15.843527 0.000002 -0.000000 -0.000003 17.076800 -0.396554 31.924349 -0.204408 -0.284202 112.811591 -0.000001 0.000001 -0.000000 9.205479 -5.035862 102.738100 0.014963 -0.019202 61.018513 0.000000 0.000000 0.000001 5.569144 -8.935204 107.329094 0.547981 -0.005773 41.263714 -0.000000 -0.000001 -0.000000 6.511280 -17.148266 98.228024 0.007409 -0.015737 43.845723 0.000000 -0.000002 -0.000000 -0.000002 0.000002 0.000002 -0.000002 0.000001 -0.000001 -0.000002 0.000001 0.000000 0.000000 0.000000 -0.000000 0.000000 0.000000 -0.000000 0.000000 0.000000 -0.000000 0.000000 -0.000000 -0.000000 -0.000001 -0.000001 0.000000 -0.000001 -0.000001 0.000000 -0.000001 -0.000001 0.000000 -0.000001 -0.000001 0.000000 -0.000001 -0.000001 0.000000 -0.000001 -0.000001 0.000000 -0.000001 -0.000001 0.000000 -0.000001 -0.000001 0.000001 0.000000 0.000000 -0.000000 
-1.295636 89.904793 2.793502 4.770904 -15.768033 1.105568 -0.000000 0.000001 -0.000000 -38.877102 4.037324 11.504696 34.397540 2.745811 1.249770 0.477506 0.452419 -7.259134 -0.000000 -0.000000 -0.000000 -0.000000 -0.000000 -0.000000 -14.621058 -12.548199 -16.501629 33.381931 -2.518164 1.721877 -20.967195 -3.169539 12.863447 0.000000 -0.000000 0.000000 0.000000 -0.000001 0.000002 22.251769 5.873096 0.775628 3.946120 1.494288 -1.175803 3.982123 1.543067 -1.226858 -2.597330 0.168290 0.295071 -2.597347 0.168291 0.295065 -0.000000 0.000000 -0.000001 -2.597264 0.168281 0.295071 -2.597259 0.168295 0.295068 -0.000001 0.000000 0.000000 -0.000000 0.000000 -0.000001 5.292725 -17.720921 5.085444 -31.692949 -12.932246 -83.707069 0.087964 -51.713746 -1.863107 -16.641030 2.867729 -5.120436 -7.471940 1.860694 -7.166929 30.987018 27.310539 -4.510892 -0.000001 -0.000000 -0.000003 -4.707389 11.366695 -75.214453 -0.816400 3.073999 -46.874632 0.000002 -0.000001 0.000002 1.623369 16.580943 -84.691306 0.018003 0.022035 -72.884853 -0.000001 0.000001 -0.000000 -6.443151 23.132643 -76.210178 0.012875 0.975920 -51.002979 -0.000001 -0.000000 -0.000003 -17.098977 22.128980 -43.123185 0.019717 0.026989 -78.662879 0.000002 0.000000 -0.000000 0.000000 0.000003 -0.000001 0.000000 0.000003 -0.000001 -0.000000 0.000004 -0.000001 -0.000002 -0.000002 0.000000 -0.000002 -0.000002 -0.000000 -0.000002 -0.000002 0.000000 -0.000004 -0.000002 0.000000 10.465811 26.515472 -15.465908 -38.615718 16.830039 78.249113 -0.054205 59.679720 -10.816275 -35.036815 10.045596 9.343062 9.347175 2.810536 -11.364503 16.169037 -43.266035 15.843541 0.000001 -0.000002 -0.000001 17.076800 -0.396557 31.924352 -0.204409 -0.284201 112.811584 -0.000000 -0.000000 -0.000002 9.205478 -5.035865 102.738107 0.014963 -0.019196 61.018506 0.000000 -0.000001 0.000002 5.569144 -8.935201 107.329101 0.547977 -0.005773 41.263707 -0.000001 0.000002 -0.000000 6.511281 -17.148271 98.228031 0.007403 -0.015738 43.845723 0.000002 0.000002 0.000000 -0.000002 0.000001 0.000000 -0.000000 0.000002 -0.000000 -0.000002 0.000001 0.000001 0.000001 0.000000 0.000001 0.000001 0.000000 0.000001 0.000001 0.000000 0.000001 0.000001 -0.000000 0.000001 -0.000000 0.000000 -0.000000 -0.000000 0.000000 -0.000000 -0.000000 0.000000 -0.000000 -0.000000 0.000000 -0.000000 -0.000000 0.000000 -0.000000 -0.000000 0.000000 -0.000000 -0.000000 0.000000 -0.000000 -0.000001 0.000001 -0.000000 -0.000000 0.000001 -0.000000 
-1.653935 89.954941 2.911658 4.185502 -16.181878 1.694467 -0.000000 0.000000 0.000000 -37.851898 6.662354 11.942938 33.690769 1.216309 1.070406 0.404119 0.326536 -6.724070 -0.000000 0.000000 -0.000000 -0.000000 -0.000000 0.000001 -15.615938 -14.865423 -18.418479 34.508469 0.775007 1.700168 -21.487657 -2.919679 12.186285 0.000000 0.000002 0.000000 0.000003 -0.000002 0.000000 21.073849 7.589787 2.148884 4.257641 1.731767 -1.404597 4.340289 1.760182 -1.497280 -2.599177 0.087517 0.139379 -2.599176 0.087517 0.139376 0.000000 -0.000000 0.000000 -2.599312 0.087527 0.139377 -2.599016 0.087510 0.139378 -0.000002 -0.000000 -0.000000 0.000000 -0.000000 0.000000 3.355432 -14.977804 1.307898 -32.819506 -13.480350 -84.278319 -0.175715 -54.654955 -5.086825 -11.893525 13.171385 -0.342639 -7.471939 1.860689 -7.166924 30.987018 27.310527 -4.510900 0.000003 -0.000002 -0.000005 -4.707394 11.366692 -75.214453 -0.816397 3.074002 -46.874629 0.000001 0.000002 -0.000001 1.623349 16.580916 -84.691279 0.018004 0.022037 -72.884860 0.000001 0.000001 0.000002 -6.443143 23.132621 -76.210178 0.012871 0.975916 -51.002983 -0.000000 0.000001 0.000002 -17.098986 22.128954 -43.123181 0.019737 0.027007 -78.662872 0.000001 -0.000002 0.000002 -0.000003 0.000001 0.000002 -0.000003 0.000001 0.000002 -0.000004 0.000001 0.000002 0.000002 -0.000001 0.000000 0.000002 -0.000001 0.000000 0.000002 -0.000001 0.000000 0.000001 -0.000001 0.000000 7.680936 25.375476 -8.087083 -36.893376 16.140546 71.261481 -0.137544 61.235023 -7.387039 -38.950943 6.472318 10.021484 9.347175 2.810536 -11.364505 16.169040 -43.266031 15.843534 0.000003 -0.000004 -0.000001 17.076800 -0.396556 31.924349 -0.204407 -0.284201 112.811584 0.000001 0.000001 0.000001 9.205481 -5.035864 102.738107 0.014965 -0.019202 61.018513 0.000001 -0.000000 0.000001 5.569145 -8.935206 107.329101 0.547984 -0.005772 41.263717 -0.000001 0.000001 -0.000000 6.511281 -17.148269 98.228031 0.007409 -0.015737 43.845727 0.000001 -0.000002 0.000000 -0.000000 0.000003 -0.000001 -0.000000 0.000001 -0.000001 -0.000000 0.000003 -0.000000 -0.000001 0.000003 -0.000002 -0.000001 0.000004 -0.000002 -0.000001 0.000003 -0.000002 -0.000001 0.000004 -0.000002 -0.000000 0.000000 -0.000000 -0.000000 0.000000 -0.000000 -0.000000 0.000000 -0.000000 -0.000000 0.000000 -0.000000 -0.000000 0.000000 -0.000000 -0.000000 0.000000 -0.000000 -0.000000 0.000000 -0.000000 -0.000000 0.000000 -0.000000 -0.000000 0.000000 0.000000 
-2.130035 89.937874 3.408662 2.292887 -17.485404 1.402801 -0.000000 -0.000001 0.000000 -36.608950 9.062076 12.787725 36.086198 -0.133807 1.334507 -1.775940 0.278853 -5.238370 0.000000 0.000000 0.000000 -0.000000 0.000000 0.000001 -14.937074 -17.112950 -19.660959 35.195217 4.212646 1.212130 -21.958732 -2.746832 11.848201 0.000000 0.000001 0.000000 -0.000001 0.000003 -0.000001 18.599181 9.525370 4.272750 4.836674 1.897868 -1.158376 4.980191 1.912593 -1.274761 -2.409079 0.065457 -0.082617 -2.409075 0.065456 -0.082615 -0.000001 -0.000000 -0.000000 -2.409085 0.065468 -0.082620 -2.409077 0.065446 -0.082617 0.000001 -0.000000 -0.000001 -0.000001 -0.000000 0.000000 1.238167 -15.660931 -1.457567 -31.552424 -12.722540 -82.076730 -0.404026 -55.930722 -11.207820 -8.677785 17.846837 4.250558 -7.471946 1.860688 -7.166925 30.987014 27.310535 -4.510899 0.000002 -0.000000 -0.000003 -4.707394 11.366692 -75.214453 -0.816400 3.074005 -46.874635 0.000000 0.000002 0.000003 1.623347 16.580926 -84.691286 0.018003 0.022037 -72.884860 -0.000003 0.000001 0.000001 -6.443167 23.132626 -76.210165 0.012878 0.975919 -51.002979 -0.000001 -0.000000 -0.000005 -17.098972 22.128964 -43.123192 0.019719 0.027001 -78.662879 -0.000001 -0.000002 -0.000002 0.000001 -0.000002 0.000002 0.000001 -0.000002 0.000002 0.000000 -0.000001 0.000002 -0.000001 -0.000001 0.000001 -0.000001 -0.000001 0.000001 -0.000001 -0.000001 0.000001 -0.000003 -0.000001 0.000001 5.971504 25.334370 -3.263506 -33.610466 13.994866 65.130362 -0.145172 62.514488 -4.909573 -42.373756 5.407598 9.867348 9.347174 2.810537 -11.364506 16.169032 -43.266031 15.843541 0.000000 -0.000000 -0.000000 17.076798 -0.396555 31.924355 -0.204410 -0.284202 112.811584 -0.000002 -0.000001 -0.000000 9.205477 -5.035866 102.738107 0.014964 -0.019204 61.018506 -0.000001 -0.000003 -0.000001 5.569145 -8.935202 107.329101 0.547978 -0.005771 41.263707 -0.000000 -0.000001 0.000001 6.511281 -17.148266 98.228031 0.007403 -0.015735 43.845730 -0.000000 0.000003 0.000000 -0.000000 0.000001 0.000002 0.000001 -0.000000 0.000001 -0.000000 0.000001 0.000001 0.000001 0.000001 0.000000 0.000001 0.000002 0.000001 0.000001 0.000001 0.000000 0.000001 0.000002 0.000001 -0.000000 0.000000 -0.000001 -0.000000 0.000000 -0.000001 -0.000000 0.000000 -0.000001 -0.000000 0.000000 -0.000001 -0.000000 0.000000 -0.000001 -0.000000 0.000000 -0.000001 -0.000000 0.000000 -0.000001 0.000001 0.000000 -0.000000 -0.000000 -0.000001 0.000000 
